<?xml version="1.0" encoding="utf-8"?>
<!-- Generator: Adobe Illustrator 28.0.0, SVG Export Plug-In . SVG Version: 6.00 Build 0)  -->
<svg version="1.1" id="Capa_2" xmlns="http://www.w3.org/2000/svg" xmlns:xlink="http://www.w3.org/1999/xlink" x="0px" y="0px"
	 viewBox="0 0 700 700" style="enable-background:new 0 0 700 700;" xml:space="preserve">
<style type="text/css">
	.st0{fill:#EB790D;}
	.st1{fill:#E72866;}
	.st2{fill:#FFFFFF;}
	.st3{fill:#1D71B8;}
	.st4{fill:#00A19A;}
	.st5{fill:#E6577D;}
	.st6{fill:#662483;}
	.st7{fill:#F9DEB1;}
	.st8{fill:#3C3C3B;}
	.st9{fill:#F9B233;}
</style>
<g id="GatoBlanco">
	<path id="Color_00000155108254459103882610000003298053830879763585_" class="st7" d="M610.94,528.06
		c13.09-48.92-13.09-76.86-45.39-92.77c10.71-19.28,17.99-40.73,20.99-63.53l1.41,3.81c53.62-39.06,72.77-121.79,72.77-121.79
		c-58.6-33.29-114.29-35.33-127.85-35.29c-18.4-17.69-40.57-31.48-65.17-40.09l2.3-0.44C454.68,118.48,387.27,60.3,387.27,60.3
		c-36.37,23.63-68.51,89.95-84.15,126.57C226.1,188.9,31.94,214.54,38,421.79c3.54,121.41,100.89,130.54,126.58,130.84
		c15.73,11.3,40.13,18.09,76.65,17.25c144.98-3.34,261.45,6.13,291.06,29.62c0,0,138.71,105.08,119.49-14.3
		C647.68,559.71,631.52,541.32,610.94,528.06z M522.56,486.9l6.96,11.92c-7.02-1.28-13.41-2.22-18.88-2.91
		C514.73,493.07,518.71,490.07,522.56,486.9z M231.61,416.37l5.73-12.81c1.81,5.59,3.89,11.05,6.21,16.38L231.61,416.37z"/>
	<g>
		<path d="M670.46,256.04l1.68-7.27l-6.48-3.68c-56.38-32.03-109.7-36.2-128.93-36.58c-16.83-15.49-36.46-27.99-58.03-36.63
			c-17.51-60.47-82.09-116.75-84.89-119.16l-5.68-4.91l-6.3,4.09c-36.81,23.91-68.57,86.68-85.4,125.16
			c-13.97,0.57-30.94,1.92-49.57,4.76c-13.18,2.01-27.93,4.93-43.35,9.13l-23.12-26.93l-15.17,13.03l17.42,20.3
			c-31.73,10.85-64.63,27.57-91.69,53.33C47.08,292.46,25.9,350.12,28,422.08c1.34,46.07,15.75,81.83,42.82,106.31
			c31.83,28.78,72.08,33.6,90.58,34.19c18.77,12.28,45.55,18.1,80.06,17.3c73.09-1.68,137.96-0.06,187.61,4.7
			c67.63,6.49,89.81,17.04,97.01,22.75l0.18,0.14c0.81,0.61,20.03,15.11,43.53,27.45c21.9,11.5,40.26,17.26,54.91,17.26
			c8.02,0,14.93-1.73,20.69-5.19c16.02-9.62,21.49-30.95,16.27-63.39c-3.8-23.62-17.23-43.82-39.45-59.88
			c4.2-20.32,2.32-38.62-5.72-54.74c-8.2-16.43-21.92-28.68-37.56-37.83c4.44-9.08,8.16-18.55,11.12-28.37l73.01-7.82l-2.13-19.89
			l-64.92,6.96C650.34,340.7,669.66,259.52,670.46,256.04z M598.01,353.48c0.05-1.78,0.08-3.57,0.08-5.37
			c0-44.57-15.46-85.6-41.28-118.02c22.46,2.69,56.58,9.86,92.2,28.68C643.88,276.34,628.33,322.05,598.01,353.48z M386.54,73.17
			c14.35,13.5,51.48,50.93,68.2,90.93c-14.85-3.75-30.39-5.75-46.39-5.75c-29.26,0-57,6.66-81.78,18.55
			c-2.26-0.08-4.95-0.15-8.03-0.18C333.99,142.72,358.99,95.27,386.54,73.17z M249.37,201.68c13.95-2.15,27.02-3.41,38.5-4.12
			c-0.94,2.36-1.73,4.39-2.36,6.06c-13.87,11.81-26.03,25.58-36.04,40.88l-31.44-36.63C229.09,205.19,239.68,203.18,249.37,201.68z
			 M641.91,586.78c0.61,3.79,1.05,7.36,1.33,10.71l-18.5-25.72l-16.24,11.68l30.57,42.51c-1.12,1.65-2.45,2.95-3.99,3.88
			c-1.83,1.1-4.07,1.81-6.67,2.15l-32.36-42.63l-15.93,12.09l18.9,24.9c-6.09-2.34-12.7-5.35-19.73-9.03
			c-21.4-11.21-39.63-24.8-40.9-25.75c-42.93-33.8-222.25-33.43-297.4-31.7c-43.77,0.99-72.13-9.2-84.27-30.33
			c-25.48-44.34,23.17-124.68,23.82-125.74c0,0,0,0,0,0l-8.52-5.24l-8.52-5.24c-2.28,3.71-55.55,91.44-24.15,146.16
			c0.09,0.16,0.19,0.31,0.28,0.46c-16.92-3.31-38.04-10.6-55.56-26.51c-22.78-20.68-34.92-51.6-36.1-91.93
			c-1.93-66,17.14-118.58,56.68-156.26c26.84-25.58,60.33-41.52,92.05-51.47l42.14,49.08c-8.47,16.77-14.51,34.95-17.69,54.09
			l-60.79-5.21l-1.71,19.93l60.27,5.17c-0.22,3.73-0.34,7.49-0.34,11.27c0,104.62,85.12,189.74,189.74,189.74
			c38.62,0,74.58-11.61,104.59-31.51C552.44,511.77,632.73,529.77,641.91,586.78z M598.6,477.94c5.04,10.11,6.76,21.64,5.23,34.5
			c-10.17-5.33-21.57-10.03-34.22-14.04c-12.23-3.89-24.22-6.72-34.99-8.8c4.26-3.81,8.35-7.8,12.25-11.98l7.45,12.58l17.21-10.19
			l-11.04-18.66c3.08-4.13,6-8.4,8.74-12.79C581.72,455.93,592.4,465.49,598.6,477.94z M549.34,442.52l-7.42-12.55l-17.21,10.19
			l11.51,19.45c-31.14,35.67-76.92,58.24-127.88,58.24c-90.77,0-165.13-71.62-169.53-161.32c4.49,10.96,21.05,45.86,52.1,53.28
			c3.92,0.94,7.87,1.4,11.87,1.4c17.72,0,36.24-9.16,55.22-27.35l-13.84-14.44c-18.02,17.27-34.35,24.32-48.56,20.95
			c-25.55-6.06-39.05-43.34-39.19-43.71l-9.43,3.33l-8.32,2.92c-0.04-1.59-0.07-3.19-0.07-4.8c0-24.42,5.19-47.65,14.52-68.65
			l5.03,5.86l15.17-13.03l-10.24-11.93c29.78-49.11,83.75-82,145.26-82c93.6,0,169.74,76.15,169.74,169.75
			c0,12.44-1.36,24.58-3.91,36.27l-27.63,2.96l2.13,19.89l19.55-2.09C563.47,418.43,557.1,430.97,549.34,442.52z"/>
		<path d="M436.13,432.91c-25.56-6.06-39.05-43.34-39.19-43.71l-9.43,3.33l-9.44,3.31c0.68,1.95,17.19,47.87,53.35,56.51
			c3.92,0.94,7.87,1.4,11.87,1.4c17.72,0,36.24-9.16,55.22-27.35l-13.84-14.44C466.67,429.23,450.34,436.29,436.13,432.91z"/>
		<path d="M403.27,481.05c1.49,10.55-0.37,14.05-0.92,14.35c-1.66,0.92-10.14,0.72-29.14-11.11c-13.39-8.34-24.95-18.05-25.06-18.14
			l-2.85-2.4l-3.73,0.04c-20.93,0.28-24.96-4.96-25.55-6c-1.49-2.61,0.54-7.65,1.7-9.55l-8.49-5.29l-8.44-5.36
			c-1.03,1.62-9.86,16.27-2.25,29.91c5.92,10.62,18.89,15.96,39.58,16.29c4.5,3.61,13.77,10.78,24.33,17.37
			c15.7,9.79,28.07,14.6,37.89,14.6c4.38,0,8.25-0.96,11.68-2.85c9.81-5.42,13.53-17.08,11.04-34.65L403.27,481.05z"/>
	</g>
</g>
</svg>
