<?xml version="1.0" encoding="utf-8"?>
<!-- Generator: Adobe Illustrator 28.0.0, SVG Export Plug-In . SVG Version: 6.00 Build 0)  -->
<svg version="1.1" id="Capa_2" xmlns="http://www.w3.org/2000/svg" xmlns:xlink="http://www.w3.org/1999/xlink" x="0px" y="0px"
	 viewBox="0 0 700 700" style="enable-background:new 0 0 700 700;" xml:space="preserve">
<style type="text/css">
	.st0{fill:#EB790D;}
	.st1{fill:#E72866;}
	.st2{fill:#FFFFFF;}
	.st3{fill:#1D71B8;}
	.st4{fill:#00A19A;}
	.st5{fill:#E6577D;}
	.st6{fill:#662483;}
	.st7{fill:#F9DEB1;}
	.st8{fill:#3C3C3B;}
	.st9{fill:#F9B233;}
</style>
<g id="GatoGris">
	<g id="Color_00000006669877305882712430000009791464613399153325_">
		<path class="st8" d="M377.69,394.01l100.8,17.64l-58.82-54.92l103.04-28.64l-86.81-37.23l86.81-55.51l-23.27,1.09l75.86-138.6
			l-197.05,42.44l20.56-46.32l-82.4,62.09l-16.96-82.72l-34,82.72l-65.36-62.09L211,140.09L30.34,64.48l59.92,167.97l-14.07,2.89
			l78.69,54.01l-84.82,19.33l102.28,45.29l-51.94,57.68l83.71-21.42l-4.03,79.25l49.94-59.13l-44.94,245.11l347.39-4.09
			L401.87,472.53L377.69,394.01z M123.28,225.67l53.24-23.37l11.25,10.12L123.28,225.67z M427.73,239.79l15.63-13.42l16.91,11.89
			L427.73,239.79z M364.62,170.99l7.96,5.6l-10.26-0.42L364.62,170.99z"/>
		<ellipse class="st9" cx="215.03" cy="300.33" rx="50.87" ry="50.77"/>
		<ellipse class="st9" cx="369.52" cy="285.78" rx="50.87" ry="50.77"/>
		<polygon class="st8" points="581.26,646.07 526.87,559.27 562.11,562.33 520.8,489.53 572.45,497.74 547.64,407.81 586.12,452.34 
			612.13,305.13 623.19,455.15 651.94,431.58 636.88,496.63 667.87,503.45 637.83,538.3 666.17,557.24 627.8,584.92 654.69,600.29 
					"/>
	</g>
	<path d="M655.77,535.86l34.32-39.8l-38.78-8.54l20.26-87.55l-38.11,31.25l-16.43-222.79l-38.34,216.97l-56.78-65.72l34.01,123.29
		l-57.86-9.19l42.34,74.63l-36.49-3.17l73.05,116.57L412.62,466.67l-17.7-57.47l121.26,21.22l-72.69-67.87l115.3-32.05l-97.35-41.75
		l105.56-67.5l-46.79,2.19l78.2-142.87l-199.64,43l29.76-67.05l-104.2,78.52L303.3,32.38l-42.29,102.9L179.13,57.5l14.77,62.42
		l-183.99-77l64.41,180.55l-28.19,5.79l79.36,54.48l-93.36,21.27l120.21,53.22l-67.42,74.87l106.37-27.22l-5.01,98.5l43.79-51.85
		l-39.43,215.08l387.37-4.56l-0.47-0.55l100.53-62.66l-28.16-16.1l37.27-26.88L655.77,535.86z M432.03,279.09
		c-1.05-9.87-4.42-19.06-9.53-27.04l55.9-2.62L432.03,279.09z M362.53,322.58c22.13,0,40.14-17.73,40.14-39.52
		c0-13.81-7.23-25.98-18.16-33.05c14.02,5.86,23.89,19.69,23.89,35.77c0,21.38-17.44,38.77-38.87,38.77
		c-4.89,0-9.57-0.92-13.89-2.57C357.87,322.36,360.17,322.58,362.53,322.58z M462.03,226.17l55.35-47.5l-25.23,46.09L462.03,226.17z
		 M552.18,115.09l-30.41,55.56l-141.32-5.75l6.29-14.17L552.18,115.09z M50.77,86.04l149.96,62.76l2.61,11.02l-126.5-31.11
		l85.25,76.74L98.06,218.6L50.77,86.04z M107.98,312.35l44.22-10.08c0.4,13.05,4.8,25.1,12.02,34.98L107.98,312.35z M208.04,337.13
		c22.13,0,40.13-17.73,40.13-39.52c0-13.81-7.23-25.98-18.16-33.05c14.02,5.86,23.89,19.69,23.89,35.77
		c0,21.38-17.44,38.77-38.87,38.77c-4.9,0-9.58-0.92-13.9-2.57C203.38,336.92,205.68,337.13,208.04,337.13z M415.61,640.98
		l25.49-13.22l-3.07-9.64c-7.58-23.8-2.94-28.64-2.89-28.68c2.35-2.02,12.74-0.13,20.58,3.74l5.34-10.75l5.37-10.73
		c-5-2.5-30.77-14.29-46.89-0.5c-13.02,11.14-10.51,31.23-7.21,44.45l-48.34,25.07l0.45,0.86l-66.75,0.78L374,528.34l-19.95-13.35
		L268.58,642.7l-9.35,0.11l33.66-126.23l-23.19-6.18l-35.39,132.7l-14.8,0.17l50.44-275.14l-56.09,66.4l3.05-59.99l-61.04,15.62
		l30.58-33.96c8.58,4.39,18.28,6.88,28.56,6.88c34.67,0,62.87-28.16,62.87-62.77c0-34.61-28.2-62.77-62.87-62.77
		c-26.12,0-48.57,15.99-58.05,38.68l-50.73-34.82l107.21-22.02l-49.48-44.54l71.76,17.65l-14.69-62.09l48.84,46.4l25.7-62.54
		l12.88,62.79l60.59-45.66l-24.87,56.04l120.41,4.9l-53.79,46.16c-11.06-9.64-25.5-15.5-41.29-15.5
		c-34.67,0-62.87,28.16-62.87,62.77c0,34.61,28.2,62.77,62.87,62.77c29.21,0,53.84-20,60.86-47l56.24,24.12l-90.77,25.23
		l44.95,41.97l-80.34-14.06l30.67,99.59l135.82,161.27L415.61,640.98z M645.13,557.62l-39.47,28.47l25.63,14.65l-46.22,28.81
		l-35.24-56.24l33.97,2.96l-40.26-70.97l45.43,7.22l-15.61-56.58l20.18,23.35l13.68-77.45l5.7,77.25l19.38-15.89l-9.84,42.54
		l23.19,5.11l-25.77,29.88L645.13,557.62z"/>
</g>
</svg>
