<?xml version="1.0" encoding="utf-8"?>
<!-- Generator: Adobe Illustrator 28.0.0, SVG Export Plug-In . SVG Version: 6.00 Build 0)  -->
<svg version="1.1" id="Capa_2" xmlns="http://www.w3.org/2000/svg" xmlns:xlink="http://www.w3.org/1999/xlink" x="0px" y="0px"
	 viewBox="0 0 700 700" style="enable-background:new 0 0 700 700;" xml:space="preserve">
<style type="text/css">
	.st0{fill:#EB790D;}
	.st1{fill:#E72866;}
	.st2{fill:#FFFFFF;}
	.st3{fill:#1D71B8;}
	.st4{fill:#00A19A;}
	.st5{fill:#E6577D;}
	.st6{fill:#662483;}
	.st7{fill:#F9DEB1;}
	.st8{fill:#3C3C3B;}
	.st9{fill:#F9B233;}
</style>
<g id="GatoNaranja_00000105406643109171516020000001348999846113454508_">
	<g id="Color">
		<path class="st0" d="M668.43,608.66c0,0,23.49-26.04-1.67-48.52c-30.01-26.8-53.98,8.69-53.98,8.69L495.8,485.75
			c11.17-12.87,20.54-27.35,27.72-43.04l4.8,2.04l-1.1,5.15l36.65,40.16l-2.4-52.82l62.08,3.79l-50.83-51.47l31.29-34.59
			l-59.48,14.03l-0.71,3.33l-4.12-1.57c0.01-0.92,0.03-1.83,0.03-2.76c0-34.13-9.51-66.03-26.03-93.21l3.99,2.51
			c0,0,15.75-80.47-126.75-156.26c0,0,25.59,67.32-14.3,67.51l0.89,0.56c-5.77-0.56-11.63-0.85-17.55-0.85
			c-4.32,0-8.6,0.16-12.85,0.46l0.26-0.17c-39.9-0.2-14.3-67.51-14.3-67.51c-46.26,24.6-75.84,49.7-94.69,72.37l0.42-0.92l-48,28.6
			l24.51-60.26L176.53,169l16.34-52.09l-31.66,16.34l4.09-57.19l-36.77,25.53l-24.51-63.32l-9.19,45.96l-50.04-33.7l14.3,52.09
			l-35.74,6.13l57.19,67.4l-49.02,16.34l79.66,40.85l-45.96,38.81l82.72-8.17l-30.64,42.89l76.6-15.32l1.28-2.82l2.27,2.47
			c-11.02,23.29-17.2,49.32-17.2,76.79c0,2.31,0.06,4.61,0.14,6.9l-3.83,2.36l-2.9-12.14l-59.79-12.63l32.1,33.85L96.36,439
			l61.97-5.24l-1.16,52.86l35.7-41.01l-1.12-4.68l3.89-0.04c7.02,15.8,16.24,30.39,27.29,43.4l-2.02,4.43l-8.59-8.73L87.23,568.83
			c0,0-23.98-35.49-53.98-8.69c-25.16,22.48-1.67,48.52-1.67,48.52s-32.17,13.61-14.21,49.35c22.42,44.62,56.04,3.36,56.04,3.36
			s16.39,36.14,47.84,23.22c35.33-14.52,4.3-59.59,4.3-59.59l117.45-113.87l-3.64-3.7l3.96-2.73c31.4,26.83,72.15,43.04,116.7,43.04
			c37.9,0,73.05-11.74,102.04-31.77L574.48,625c0,0-31.04,45.06,4.3,59.59c31.45,12.92,47.84-23.22,47.84-23.22
			s33.62,41.26,56.04-3.36C700.61,622.27,668.43,608.66,668.43,608.66z"/>
		<path class="st1" d="M261.3,513.17l23.09-105.7c0,0,30.53,15.04,57.31-14.81c0,0,72.03,43.08,87.62,19.32l35.63,101.95
			c0,0-37.66,37.47-104.94,37.47S261.3,513.17,261.3,513.17z"/>
		<polyline class="st2" points="378.74,407.47 395.6,447.81 424.7,415.13 		"/>
	</g>
	<g id="Trazado_00000142149754790389858090000008081106517612965261_">
		<path d="M695.68,623.91c-3.06-8.32-8.41-14.23-13.23-18.15c3.27-6.05,6.4-14.49,5.88-24.14c-0.59-10.88-5.61-20.62-14.92-28.94
			c-10.78-9.63-22.29-13.75-34.23-12.27c-12.36,1.54-22.08,9-28.05,14.99l-100.9-71.66c5.31-6.88,10.17-14.13,14.51-21.71
			l50.36,55.18l-3.15-69.32l77.07,4.7l-62.56-63.35l46.5-51.4l-83.52,19.7c-1.54-28.24-9.29-54.86-21.9-78.51
			c1.01-5.55,13.59-89.45-131.9-166.83L372.2,99.75l9.4,24.84c5.73,15.14,10.9,40.69,4.44,50.08c-1.23,1.79-3.42,3.85-9.45,3.88
			l0,0.44c-5.48-0.48-11.01-0.74-16.61-0.74c-4.21,0-8.39,0.15-12.53,0.42l0-0.13c-6.03-0.03-8.21-2.09-9.45-3.88
			c-6.45-9.39-1.29-34.94,4.44-50.08l9.46-24.88l-23.5,12.5c-45.68,24.3-75.78,49.24-95.55,72.19l-21.54,12.83l20.37-50.07
			l-40.51,8.53l18.4-58.66l-37.13,19.17l4.31-60.27l-43.49,30.2L100.95,2.65L87.97,67.56L28,27.18l18.52,67.45l-42.15,7.23
			l58.96,69.49L5.77,190.53l87.48,44.86l-59.06,49.87l92.81-9.17l-32.53,45.54l86.8-17.36c-5.66,15.82-9.27,32.59-10.52,50.01
			l-86.22-18.22l47.69,50.3l-61.06,64.79l76.94-6.51l-1.52,69.37l47.33-54.37c2.8,5.05,5.81,9.96,9.05,14.72L88.86,555.4
			c-5.97-5.98-15.69-13.45-28.05-14.99c-11.94-1.49-23.46,2.64-34.23,12.27c-9.31,8.32-14.33,18.05-14.92,28.94
			c-0.52,9.65,2.61,18.09,5.88,24.14c-4.82,3.92-10.16,9.83-13.23,18.15c-4.29,11.66-2.91,24.64,4.1,38.59
			c7.99,15.9,18.51,24.67,31.29,26.06c12.78,1.4,24.16-5.21,31.77-11.39c1.99,2.6,4.41,5.37,7.25,8
			c8.73,8.07,18.77,12.19,29.27,12.19c5.59,0,11.3-1.16,17.03-3.52c14.01-5.76,19.46-15.41,21.57-22.5
			c4.86-16.35-2.93-34.67-8.4-44.69l109.28-105.95c31.5,23.28,70.43,37.06,112.51,37.06c37.01,0,71.57-10.66,100.79-29.05
			l101.03,97.95c-5.47,10.03-13.26,28.34-8.4,44.69c2.11,7.08,7.56,16.74,21.57,22.5c5.72,2.35,11.44,3.52,17.03,3.52
			c10.5,0,20.54-4.11,29.27-12.19c2.84-2.63,5.25-5.39,7.25-8c7.61,6.18,18.98,12.79,31.77,11.39c12.78-1.4,23.3-10.17,31.29-26.06
			C698.59,648.55,699.97,635.57,695.68,623.91z M598.06,429.45l-47.09-2.87l1.65,36.33l-18.02-19.75l-0.66,0.61
			c8.88-20.3,14.31-42.43,15.53-65.66l25.59-6.04l-16.09,17.79L598.06,429.45z M407.02,141.62c55.27,33.32,79.92,66.02,90.9,88.57
			c2.42,4.97,4.28,9.65,5.72,13.98c-25.6-29.66-60.22-51.33-99.55-60.72C410.53,171.68,409.6,155.22,407.02,141.62z M529.73,368
			c0,39.23-13.38,75.38-35.81,104.16l-0.47-0.33l-4.83,6.8c-4.34,5.04-8.98,9.83-13.87,14.33L439.06,418
			c1.19-0.9,2.28-1.9,3.25-3.01c12.52-14.29-0.85-36.52-5.24-43.82l-17.14,10.31c9.48,15.76,7.37,20.31,7.34,20.34
			c-0.05,0.06-6.55,6.06-41.94-4.15c-20.48-5.91-39.47-14.1-39.66-14.18l-4.68-2.03l-4.39,2.6c-32.29,19.13-42.25,18.08-43.96,17.65
			c-0.82-2.53,0.85-10.34,3.5-16.07l-18.14-8.43c-2.08,4.46-11.7,27.11,0.75,39.01l-24.3,84.62
			c-39.09-31.12-64.19-79.1-64.19-132.84c0-93.6,76.15-169.74,169.74-169.74S529.73,274.41,529.73,368z M404.71,422.54l-6.01,6.75
			l-3.55-8.5C398.51,421.51,401.69,422.1,404.71,422.54z M317.03,141.62c-2.52,13.28-3.45,29.29,2.51,40.99
			c-37.38,8.15-70.68,27.34-96.29,53.97c0.86-2.07,1.81-4.2,2.88-6.4C237.12,207.64,261.77,174.95,317.03,141.62z M140.13,292.11
			l28.75-40.25l-72.64,7.17l32.85-27.74l-71.84-36.84l40.48-13.49l-55.42-65.32l29.34-5.03L61.57,73.89l40.12,27.02l5.4-27
			l16.7,43.15l30.04-20.86l-3.86,54.11l26.19-13.52l-14.28,45.51l37.11-7.81l-28.66,70.45l37.05-22.07
			c-10.8,22.83-11.88,40.86-11.49,49.97c-1.74,2.99-3.41,6.03-4.99,9.12L140.13,292.11z M167.78,459.21l0.8-36.35l-47.01,3.98
			l38.17-40.5l-16.51-17.41l27.15,5.74c0.8,23.07,5.74,45.1,14.09,65.38L167.78,459.21z M118.56,617.82l-6.04,5.88l4.75,6.96
			c3.72,5.44,13.56,23.56,10.14,35.01c-0.81,2.72-2.74,6.69-9.99,9.67c-9.24,3.8-17.1,2.36-24.76-4.53
			c-6.57-5.91-10.15-13.53-10.17-13.57l-6.64-14.57l-10.2,12.37c-3.2,3.88-14.43,14.71-23.81,13.65
			c-5.59-0.63-10.82-5.73-15.56-15.16c-4.39-8.74-5.49-16.33-3.26-22.55c3.19-8.91,12.42-13.09,12.43-13.1l12.98-5.43l-9.41-10.43
			c-0.05-0.05-4.68-5.37-6.61-12.49c-2.27-8.37,0.11-15.33,7.48-21.92c6.34-5.66,12.35-8.07,18.36-7.35
			c9.76,1.17,18.25,10.66,20.68,14.18l5.73,8.48l130.38-92.6c5.25,6.21,10.89,12.09,16.89,17.58L118.56,617.82z M271.76,512.97
			l26.22-91.3c11.02-1.13,25.54-7.01,44.45-17.86c5.77,2.35,16.24,6.44,28.24,10.3l21.82,52.23l30.91-34.7l35.39,74.32
			c-27.85,20-61.97,31.8-98.8,31.8C327.7,537.75,297.49,528.68,271.76,512.97z M673.71,653.52c-4.74,9.43-9.97,14.53-15.56,15.16
			c-9.37,1.06-20.61-9.77-23.79-13.63l-10.19-12.51l-6.67,14.7c-0.51,1.12-12.66,27.26-34.93,18.1c-7.26-2.98-9.18-6.95-9.99-9.67
			c-3.43-11.45,6.42-29.57,10.13-34.99l4.8-6.96L477.4,516.95c7-5.53,13.6-11.53,19.75-17.97l109.83,78l8.3,5.83l5.75-8.35
			c2.45-3.56,10.95-13.04,20.7-14.21c6.01-0.72,12.02,1.68,18.36,7.35c7.37,6.59,9.75,13.55,7.48,21.92
			c-1.93,7.12-6.56,12.44-6.57,12.45l-9.49,10.4l12.94,5.47c0.09,0.04,9.32,4.22,12.51,13.13
			C679.2,637.2,678.1,644.78,673.71,653.52z"/>
		<polygon points="483.34,315.75 429.47,334.17 461.09,273.74 443.37,264.47 388.5,369.31 489.81,334.67 		"/>
		<polygon points="234.53,321.81 228.59,340.91 325.66,371.08 271.82,263.39 253.93,272.33 286.79,338.06 		"/>
	</g>
</g>
</svg>
