<?xml version="1.0" encoding="utf-8"?>
<!-- Generator: Adobe Illustrator 28.0.0, SVG Export Plug-In . SVG Version: 6.00 Build 0)  -->
<svg version="1.1" id="Capa_2" xmlns="http://www.w3.org/2000/svg" xmlns:xlink="http://www.w3.org/1999/xlink" x="0px" y="0px"
	 viewBox="0 0 700 700" style="enable-background:new 0 0 700 700;" xml:space="preserve">
<style type="text/css">
	.st0{fill:#EB790D;}
	.st1{fill:#E72866;}
	.st2{fill:#FFFFFF;}
	.st3{fill:#1D71B8;}
	.st4{fill:#00A19A;}
	.st5{fill:#E6577D;}
	.st6{fill:#662483;}
	.st7{fill:#F9DEB1;}
	.st8{fill:#3C3C3B;}
	.st9{fill:#F9B233;}
</style>
<g id="GatoJuguete">
	<g id="Color_00000018934753963735085900000014730356734222277026_">
		<path class="st3" d="M212.97,627.52h422.81c0,0-14.55-235.91-228.26-235.91c0,0-114.08-102.21-215.23-31.4
			C54.42,456.71,163.95,622.16,212.97,627.52z"/>
		<path class="st4" d="M379.22,627.52c0,0-62.41-181.69,117.15-219.39c0,0,139.4,78.45,139.4,219.39H379.22z"/>
		<polygon class="st5" points="585.01,627.52 627.16,577.73 643.06,628.29 		"/>
		<path class="st5" d="M409.54,449.82l-104.94-65.11c0,0-48.4,68.65,6.75,95.99c20.64,10.23,45.09,8.84,65.02-2.7
			C399.34,464.7,409.54,449.82,409.54,449.82z"/>
		<circle class="st6" cx="484.88" cy="509.56" r="43.66"/>
	</g>
	<g id="Trazado">
		<path d="M484.88,455.9c-29.59,0-53.66,24.07-53.66,53.66s24.07,53.66,53.66,53.66s53.66-24.07,53.66-53.66
			S514.47,455.9,484.88,455.9z M484.88,543.22c-18.56,0-33.66-15.1-33.66-33.66s15.1-33.66,33.66-33.66
			c18.56,0,33.66,15.1,33.66,33.66S503.45,543.22,484.88,543.22z"/>
		<polygon points="504.6,495.34 488.15,483.95 480.45,495.09 469.7,486.45 457.17,502.04 469.03,511.57 460.58,523.78 
			477.02,535.17 484.66,524.14 496.24,533.44 508.77,517.85 496.07,507.65 		"/>
		<path d="M674.39,557.02l-42.03,1.91c-1.55-5.1-3.27-10.37-5.19-15.75l50.82-49.43l-13.94-14.34l-44.83,43.6
			c-2.59-5.96-5.42-11.99-8.53-18.03c-18.37-35.69-42.45-64.19-71.58-84.7c-35.57-25.04-78.57-38.04-127.86-38.66
			c-8.51-7.08-34.52-27.3-69.64-41.55c-57.16-23.19-110.77-19.07-155.05,11.93c-10.63,7.44-19.76,15.2-27.6,23.15
			c-40.2,25.29-76.07,26.83-98.47,4.2c-20.21-20.42-24.55-55.72-9.68-78.7c6.9-10.66,17.14-17.55,30.43-20.48
			c16.29-3.59,36.24-1.03,59.3,7.6c62.61,23.44,117.48,31.7,163.08,24.54c40.53-6.37,71.76-24.77,90.34-53.23
			c29.65-45.42,20.22-108.06-22.92-152.33c-25.53-26.19-61.06-41.82-100.05-44.01c-36.65-2.05-71.88,8.13-96.65,27.94
			c-19.97,15.97-31.85,37.14-34.36,61.2c-2.77,26.63,5.82,55.52,25.56,85.85l16.77-10.91c-31.79-48.87-30.14-92.8,4.53-120.53
			c41.42-33.13,121.38-35.36,169.88,14.41c36.56,37.51,44.99,89.92,20.5,127.44c-15.4,23.59-41.92,38.94-76.69,44.4
			c-42.16,6.62-93.62-1.29-152.97-23.51c-72.72-27.23-103.62,5.43-113.53,20.74c-9.66,14.92-13.69,33.88-11.35,53.37
			c2.33,19.39,10.71,37.24,23.6,50.27c13.62,13.76,31.41,21.34,51.44,21.92c0.83,0.02,1.67,0.04,2.51,0.04
			c10.47,0,21.39-1.88,32.67-5.58c-23.51,42.88-19,86.36-12.07,113.4c7.16,27.93,21.04,55.54,39.08,77.74
			c17.48,21.5,36.42,34.81,51.98,36.51l0.54,0.06h433.99l-0.65-10.62c-0.09-1.4-1.38-20.79-8.02-48.2L675.3,577L674.39,557.02z
			 M592.61,513.59c10.42,20.13,17.62,40.39,22.57,58.17l-0.71-0.62l-40.76,46.39H386.28c-3.08-8.98-5.57-17.73-7.44-26.23l18.18-2.9
			l-3.15-19.75l-18.34,2.92c-0.61-5.42-0.96-10.74-1.04-15.94l19.47,2.93l2.97-19.78l-21.34-3.21c1.98-15.28,6.55-29.46,13.75-42.46
			c28.96-52.3,92.28-70.96,106.27-74.51C536.61,436.38,569.08,468.11,592.61,513.59z M371.37,469.34c-17.45,10.1-38.22,11-55.57,2.4
			c-10.8-5.35-17.24-12.63-19.69-22.23c-4.56-17.9,5.34-39.54,11.76-51l86.37,53.59C389.32,456.93,381.78,463.32,371.37,469.34z
			 M140.19,518.24c-10.84-42.3-9.61-102.64,57.83-149.84c38.86-27.2,84.46-30.56,135.55-9.98c39.2,15.79,67.01,40.4,67.28,40.64
			l2.85,2.55h3.82c20,0,38.74,2.14,56.23,6.37c-15.65,6.23-35.19,15.97-53.42,30.57l-108.47-67.3l-5.43,7.71
			c-1.17,1.66-28.47,40.93-19.72,75.43c3.91,15.41,14.07,27.28,30.21,35.28c10.72,5.32,22.39,7.96,34.12,7.96
			c8.71,0,17.46-1.46,25.89-4.36c-5.6,12.36-9.33,25.48-11.16,39.33l-25.93-3.9l-2.97,19.78l27.58,4.15
			c-0.03,7.2,0.39,14.57,1.29,22.11l-18.03,2.87l3.15,19.75l18.19-2.9c1.62,7.54,3.69,15.23,6.18,23.07H213.58
			C193.38,614.71,154.04,572.28,140.19,518.24z M600.34,617.52l20.35-23.15c1.95,9.4,3.2,17.34,3.97,23.15H600.34z"/>
	</g>
</g>
</svg>
